# xmcd CD database file
#
# Track frame offsets:
#	150
#	19151
#	35838
#	57500
#	75781
#	93496
#	108819
#	120841
#	142065
#	161455
#	182356
#	201171
#
# Disc length: 2855 seconds
#
# Revision: 0
# Processed by: cddbd v1.5.2PL0 Copyright (c) Steve Scherf et al.
# Submitted via: CDex 1.51
#
DISCID=910b250c
DTITLE=Greg Trooper - Upside   Down Town
DYEAR=2010
DGENRE=Country
TTITLE0=Greg Trooper - Nobody In The Whole Wide World
TTITLE1=Greg Trooper - Dreams Like This
TTITLE2=Greg Trooper - They Call Me Hank
TTITLE3=Greg Trooper - Bulletproof Heart
TTITLE4=Greg Trooper - We've Still Got Time
TTITLE5=Greg Trooper - Might Be A Train
TTITLE6=Greg Trooper - First True Love
TTITLE7=Greg Trooper - Could Have Been You
TTITLE8=Greg Trooper - Time For Love
TTITLE9=Greg Trooper - Second Wind
TTITLE10=Greg Trooper - Just One Hand
TTITLE11=Greg Trooper - Everything Will Be Just Fine
EXTD=YEAR: 2010
EXTT0=
EXTT1=
EXTT2=
EXTT3=
EXTT4=
EXTT5=
EXTT6=
EXTT7=
EXTT8=
EXTT9=
EXTT10=
EXTT11=
PLAYORDER=
